<svg width="55" height="59" viewBox="0 0 55 59" fill="none" xmlns="http://www.w3.org/2000/svg">
<path d="M4.91877 6.38426C6.0209 5.91158 7.05517 5.6557 8.02152 5.61662C8.9965 5.55595 9.59732 5.78985 9.82397 6.31827C10.0506 6.84674 10.1284 7.59087 10.0575 8.55082C9.99518 9.48918 9.82816 10.0166 9.55641 10.1332C9.48091 10.1656 9.37411 10.1666 9.23607 10.1365C9.1066 10.0847 8.8413 10.0913 8.44009 10.1561C8.04754 10.1994 7.72291 10.276 7.46624 10.3861C6.59057 10.7616 6.0137 11.3755 5.73564 12.2276C5.47272 13.0732 5.61643 14.1377 6.16683 15.4211C6.71072 16.6893 7.38719 17.5164 8.19618 17.9022C9.0203 18.2817 9.85507 18.2901 10.7006 17.9275C11.0478 17.7786 11.4134 17.5682 11.7973 17.2963C12.1898 17.0028 12.4378 16.7266 12.5413 16.4677C12.5585 16.4246 12.6124 16.3836 12.703 16.3448C12.7936 16.3059 13.0342 16.4083 13.4246 16.652C13.8238 16.874 14.2488 17.2191 14.6998 17.687C15.1442 18.1399 15.4312 18.5173 15.5607 18.8193C15.8133 19.4081 15.561 20.0704 14.8041 20.8061C14.0471 21.5419 13.0496 22.1753 11.8116 22.7063C9.8187 23.5609 7.87949 23.5615 5.99394 22.7077C4.10845 21.854 2.61855 20.1514 1.52426 17.5998C0.423456 15.0332 0.215776 12.7359 0.901213 10.7081C1.60173 8.67378 2.94092 7.23253 4.91877 6.38426Z" fill="black"/>
<path d="M40.291 53.8067C40.5616 53.9733 41.017 54.1916 41.6572 54.4612C42.3102 54.7293 42.9105 54.8318 43.459 54.7677C44.0203 54.7027 44.2761 54.4548 44.2258 54.024C44.2032 53.8279 44.1051 53.6672 43.9316 53.542C43.7567 53.4035 43.4491 53.2606 43.0085 53.1133C42.5679 52.9664 42.2372 52.8526 42.0165 52.7722C41.7937 52.6791 41.4921 52.5292 41.1106 52.3218C40.741 52.1005 40.4487 51.8629 40.2339 51.6101C39.6252 50.9265 39.2541 50.0109 39.1206 48.8621C38.987 47.7132 39.299 46.698 40.0564 45.8158C40.8258 44.9194 41.9021 44.3905 43.2855 44.2299C44.2258 44.1205 45.1061 44.1239 45.9266 44.2402C46.7457 44.3437 47.1873 44.5571 47.2514 44.8804C47.2558 44.9194 47.2602 44.9588 47.2647 44.9977C47.3179 45.4546 47.242 46.0524 47.0365 46.7907C46.83 47.5156 46.6723 47.9247 46.5639 48.0163C45.6782 47.6827 44.9025 47.5546 44.2372 47.6319C43.5842 47.7078 43.285 47.9809 43.3397 48.451C43.3732 48.7379 43.6443 48.9646 44.1529 49.1302C44.2638 49.1706 44.422 49.2248 44.6285 49.2933C44.835 49.3618 45.0696 49.447 45.3333 49.5486C45.6078 49.6358 45.9 49.7605 46.21 49.9231C46.5313 50.071 46.8803 50.2819 47.2563 50.5554C48.0236 51.1281 48.4702 51.9492 48.5943 53.0196C48.757 54.4168 48.5047 55.6036 47.8374 56.5809C47.1705 57.5582 46.0355 58.153 44.4328 58.3659C43.6497 58.4571 42.9307 58.4743 42.2757 58.4182C41.634 58.3605 41.0559 58.1698 40.5424 57.846C40.0284 57.5217 39.74 57.0924 39.678 56.5572C39.6159 56.022 39.6523 55.4818 39.7874 54.9368C39.9209 54.3789 40.0885 54.0018 40.291 53.8067Z" fill="black"/>
<path d="M35.64 1.1733C37.8789 1.63888 39.0134 2.25064 39.0439 3.00867L39.282 8.2531L45.4198 9.52939L47.5345 4.97563C47.8549 4.20996 49.1727 4.06793 51.4891 4.54958C52.7241 4.80639 53.6245 5.0607 54.1898 5.31249C54.7492 5.58996 55.0212 5.76728 55.0049 5.8445L42.7387 30.5568C42.6959 30.7626 40.9118 30.499 37.386 29.7659C33.8604 29.0328 32.119 28.5633 32.1618 28.3574L30.926 0.797117C30.9635 0.616985 31.5848 0.598554 32.79 0.741772C33.9952 0.88499 34.9452 1.02885 35.64 1.1733ZM43.4351 14.2311L39.382 13.3883L39.4574 21.7399L39.6891 21.7881L43.4351 14.2311Z" fill="black"/>
<path d="M14.4388 53.7632C20.0186 53.7632 24.5419 49.2399 24.5419 43.6601C24.5419 38.0803 20.0186 33.5569 14.4388 33.5569C8.85896 33.5569 4.33562 38.0803 4.33562 43.6601C4.33562 49.2399 8.85896 53.7632 14.4388 53.7632Z" fill="black"/>
<path d="M14.4391 47.8493C16.7526 47.8493 18.6282 45.9737 18.6282 43.6601C18.6282 41.3466 16.7526 39.471 14.4391 39.471C12.1255 39.471 10.2499 41.3466 10.2499 43.6601C10.2499 45.9737 12.1255 47.8493 14.4391 47.8493Z" fill="#DCD2FF"/>
</svg>
